<?xml version="1.0" standalone="no"?>
<!DOCTYPE svg PUBLIC "-//W3C//DTD SVG 20010904//EN"
 "http://www.w3.org/TR/2001/REC-SVG-20010904/DTD/svg10.dtd">
<svg version="1.0" xmlns="http://www.w3.org/2000/svg"
 width="1103.000000pt" height="855.000000pt" viewBox="0 0 1103.000000 855.000000"
 preserveAspectRatio="xMidYMid meet">

<g transform="translate(0.000000,855.000000) scale(0.100000,-0.100000)"
fill="#000000" stroke="none">
<path d="M1215 8543 c-307 -40 -592 -179 -810 -398 -189 -189 -307 -402 -378
-685 l-21 -85 -3 -3147 -3 -3148 430 0 430 0 0 3063 c0 2143 3 3081 11 3123
38 209 216 381 429 415 305 47 559 -89 652 -351 l23 -65 3 -3093 2 -3092 433
2 432 3 2 3094 c3 2833 4 3099 19 3145 44 135 144 251 266 310 162 77 375 77
537 -1 140 -67 252 -214 280 -367 8 -41 11 -455 11 -1288 l0 -1228 430 0 430
0 -3 1313 c-3 1296 -3 1313 -24 1397 -70 280 -189 497 -378 685 -152 153 -319
258 -521 328 -180 63 -243 72 -494 72 -251 0 -314 -9 -494 -72 -155 -54 -296
-132 -411 -227 -27 -23 -58 -47 -67 -54 -14 -12 -27 -5 -94 48 -204 162 -420
258 -664 295 -87 14 -375 19 -455 8z"/>
<path d="M5110 6035 l0 -1215 735 0 736 0 -3 133 -3 132 -562 3 -563 2 0 435
0 435 505 0 505 0 0 130 0 130 -505 0 -505 0 0 380 0 380 535 0 535 0 0 135 0
135 -705 0 -705 0 0 -1215z"/>
<path d="M6862 7228 c8 -13 180 -283 382 -601 l367 -577 -382 -593 c-210 -325
-389 -602 -397 -614 l-14 -23 195 0 195 0 147 253 c81 138 190 320 241 404 51
83 116 194 145 247 28 53 54 98 59 101 4 3 27 -28 51 -68 23 -39 101 -164 174
-277 72 -113 194 -307 270 -432 l140 -228 197 0 198 0 -54 83 c-29 45 -196
303 -371 572 -175 270 -333 513 -351 541 l-33 51 395 592 394 591 -196 -2
-197 -3 -208 -335 c-115 -184 -248 -404 -295 -488 l-87 -153 -45 78 c-24 43
-155 263 -291 490 l-246 412 -199 1 -198 0 14 -22z"/>
<path d="M8950 7115 l0 -135 395 0 395 0 0 -1080 0 -1080 170 0 170 0 0 1080
0 1080 398 2 397 3 3 133 3 132 -966 0 -965 0 0 -135z"/>
<path d="M6115 4444 c-22 -2 -96 -9 -165 -15 -69 -6 -168 -18 -220 -27 l-95
-17 -3 -1592 -2 -1593 190 0 190 0 0 701 0 701 243 -4 c213 -4 250 -7 308 -26
84 -28 175 -87 221 -143 92 -113 134 -230 208 -574 60 -282 110 -482 143 -580
l24 -70 198 -3 c185 -2 197 -1 190 15 -42 104 -110 366 -185 718 -63 289 -87
371 -148 495 -38 77 -61 110 -127 176 -52 53 -100 90 -137 109 -32 15 -58 29
-58 30 0 2 37 21 83 44 45 22 113 64 152 93 286 218 397 622 274 1003 -39 122
-89 205 -179 296 -127 128 -287 204 -515 245 -86 15 -490 28 -590 18z m512
-343 c211 -52 358 -180 414 -360 29 -93 36 -254 15 -351 -45 -215 -188 -368
-411 -441 -65 -21 -91 -23 -353 -27 l-282 -4 2 588 3 588 39 8 c156 33 438 32
573 -1z"/>
<path d="M9515 4443 c-116 -7 -287 -25 -382 -40 l-103 -16 0 -1593 0 -1594
190 0 190 0 0 651 c0 590 1 651 16 645 80 -31 401 -31 569 -1 566 101 879 495
852 1070 -28 586 -421 892 -1134 883 -81 -1 -170 -3 -198 -5z m508 -352 c287
-76 447 -291 447 -599 0 -363 -193 -602 -538 -668 -91 -17 -361 -18 -452 -1
l-65 12 -3 627 -2 626 32 7 c138 31 459 28 581 -4z"/>
<path d="M3120 4255 l0 -175 450 0 450 0 0 -1440 0 -1440 190 0 190 0 2 1438
3 1437 453 3 452 2 0 175 0 175 -1095 0 -1095 0 0 -175z"/>
<path d="M7990 2815 l0 -1615 190 0 190 0 0 1615 0 1615 -190 0 -190 0 0
-1615z"/>
</g>
</svg>
